<?xml version="1.0" standalone="no"?>
<!DOCTYPE svg PUBLIC "-//W3C//DTD SVG 20010904//EN"
 "http://www.w3.org/TR/2001/REC-SVG-20010904/DTD/svg10.dtd">
<svg version="1.0" xmlns="http://www.w3.org/2000/svg"
 width="814.000000pt" height="750.000000pt" viewBox="0 0 814.000000 750.000000"
 preserveAspectRatio="xMidYMid meet">
<metadata>
Created by potrace 1.16, written by Peter Selinger 2001-2019
</metadata>
<g transform="translate(0.000000,750.000000) scale(0.100000,-0.100000)"
fill="#000000" stroke="none">
<path d="M6 7484 c-3 -9 -6 -95 -6 -191 0 -155 2 -174 15 -163 8 7 15 26 15
42 0 16 4 27 8 24 11 -7 2 -69 -11 -77 -15 -11 -26 -88 -26 -194 0 -92 1 -98
14 -75 8 14 14 34 15 45 0 11 6 29 14 40 7 11 16 31 19 45 3 14 17 57 31 95
14 39 26 79 26 90 0 11 7 33 15 49 8 15 15 36 15 46 0 10 7 23 15 30 8 7 15
25 15 39 0 15 7 36 15 47 8 10 15 26 15 34 0 8 7 28 15 44 8 15 15 32 15 36 0
5 -51 9 -114 9 -95 1 -115 -2 -120 -15z"/>
<path d="M250 7467 c0 -18 -5 -38 -10 -43 -6 -6 -13 -35 -17 -65 -3 -30 -9
-59 -14 -65 -5 -6 -11 -37 -15 -70 -3 -32 -10 -70 -15 -84 -5 -14 -13 -54 -19
-90 -5 -36 -16 -94 -25 -130 -9 -36 -22 -87 -28 -115 -7 -27 -15 -55 -20 -62
-4 -6 -10 -33 -13 -60 -4 -26 -11 -53 -16 -60 -5 -6 -11 -44 -14 -85 -3 -40
-10 -82 -14 -93 -22 -49 -30 -156 -29 -389 1 -233 2 -247 14 -191 22 98 37
195 44 285 4 47 12 95 19 107 7 12 12 44 12 72 0 27 7 76 15 108 8 31 15 81
15 111 0 29 6 65 14 80 7 15 16 44 20 66 4 21 11 46 16 55 5 9 12 37 15 63 3
26 10 50 16 53 5 4 9 26 9 51 0 25 7 61 15 81 8 19 15 56 15 82 0 25 7 59 15
75 8 15 15 50 15 76 0 33 6 55 20 71 10 13 19 19 20 14 0 -6 -5 -16 -11 -22
-5 -5 -13 -52 -16 -104 -3 -52 -10 -100 -16 -107 -6 -8 -14 -51 -19 -95 -11
-121 -28 -238 -39 -274 -6 -18 -14 -72 -19 -120 -10 -96 -27 -188 -41 -215 -5
-10 -12 -43 -15 -75 -4 -32 -11 -67 -17 -78 -13 -24 -25 -83 -39 -190 -6 -44
-17 -94 -24 -112 -8 -17 -14 -47 -14 -67 0 -20 -4 -36 -9 -36 -24 0 -30 -137
-30 -618 -1 -439 1 -501 14 -488 29 28 83 56 99 50 10 -4 30 4 50 20 19 14 42
26 52 26 15 0 68 22 126 51 24 12 28 11 28 -4 0 -19 -55 -57 -82 -57 -13 0
-32 -7 -42 -15 -11 -8 -26 -15 -34 -15 -8 0 -34 -13 -59 -30 -24 -16 -55 -30
-69 -30 -13 0 -27 -7 -30 -15 -4 -8 -17 -15 -30 -15 l-24 0 0 -141 c0 -129 1
-140 16 -128 9 7 32 14 50 15 19 0 42 8 52 17 10 10 27 17 38 17 10 0 46 14
78 30 66 34 102 39 92 14 -3 -9 -6 -18 -6 -20 0 -2 -6 -4 -13 -4 -8 0 -22 -9
-32 -20 -11 -12 -31 -20 -52 -20 -18 0 -33 -4 -33 -10 0 -5 -17 -14 -38 -19
-21 -6 -53 -22 -72 -36 -19 -14 -44 -25 -57 -25 -23 0 -23 0 -23 -140 l0 -140
24 0 c13 0 29 7 36 15 7 8 35 22 63 30 28 8 53 19 56 23 12 16 91 41 97 30 9
-15 -57 -67 -86 -68 -14 0 -39 -8 -56 -19 -17 -10 -41 -22 -54 -26 -14 -4 -37
-17 -52 -28 l-28 -21 0 -138 0 -139 23 12 c12 7 35 14 51 16 16 2 37 10 46 18
9 8 23 15 31 15 8 0 26 7 42 14 25 14 27 13 27 -5 0 -30 -52 -71 -92 -74 -18
-1 -55 -10 -81 -20 l-47 -18 0 -139 c0 -130 1 -140 17 -133 10 4 32 12 48 18
17 5 38 14 47 18 29 15 48 10 48 -11 0 -11 -6 -20 -13 -20 -8 0 -22 -9 -31
-19 -13 -14 -26 -18 -50 -14 -59 9 -66 -9 -66 -168 0 -76 2 -139 4 -139 2 0
20 7 39 15 51 21 59 19 55 -12 -2 -23 -11 -31 -43 -41 -53 -17 -62 -28 -47
-52 7 -12 8 -21 2 -25 -15 -9 -13 -201 2 -225 10 -16 10 -24 0 -40 -8 -14 -12
-69 -11 -182 l1 -163 19 40 c10 22 19 49 19 59 0 11 11 34 25 52 14 18 25 39
25 46 0 8 7 24 16 37 16 22 16 25 0 51 -9 16 -16 39 -16 52 0 31 34 97 60 115
21 15 27 57 10 68 -15 9 -12 61 3 74 10 8 14 41 15 113 0 62 6 121 15 148 8
25 18 70 21 100 3 30 12 82 19 115 13 59 14 60 54 68 50 10 61 22 85 94 14 39
16 59 9 66 -6 6 -11 22 -11 35 0 37 -17 59 -49 65 -28 6 -30 8 -24 44 4 23 24
61 50 96 42 56 43 59 43 132 0 58 -4 77 -15 81 -10 4 -15 21 -15 53 0 42 4 51
39 84 22 21 43 48 47 60 3 12 13 29 21 38 11 13 12 21 1 43 -9 22 -9 32 1 47
17 28 6 53 -27 65 -25 10 -28 15 -25 41 4 24 13 34 46 48 23 10 54 32 69 47
24 26 39 31 129 44 56 7 129 16 162 20 65 6 77 10 77 25 0 7 -26 9 -72 5 -184
-14 -248 -18 -248 -12 0 4 5 15 12 26 10 15 9 22 -4 37 -18 20 -95 46 -119 41
-9 -2 -15 7 -17 29 -3 26 5 39 43 77 25 25 50 46 55 46 5 0 25 14 45 31 39 34
46 70 17 91 -12 9 -17 26 -17 53 0 40 0 40 -42 43 -37 3 -43 6 -42 25 1 42 83
86 162 87 16 0 42 10 59 21 24 18 28 26 23 48 -8 31 -55 74 -113 103 -35 17
-48 19 -67 10 -17 -8 -26 -8 -31 -1 -9 15 4 23 51 37 108 30 115 34 119 55 13
73 29 183 37 257 11 108 17 132 31 128 18 -6 37 -97 44 -213 7 -110 19 -145
50 -145 21 0 26 17 30 97 3 42 7 80 10 84 10 17 23 9 26 -17 2 -15 11 -32 21
-38 31 -18 57 24 57 92 0 31 4 52 8 46 5 -5 21 -49 37 -99 33 -103 56 -136 83
-119 15 10 17 27 16 125 0 63 -4 148 -8 189 -8 69 -7 74 8 55 8 -11 16 -27 16
-36 0 -24 44 -159 64 -197 17 -33 43 -41 64 -20 16 16 15 130 -3 203 -8 36
-14 112 -15 190 0 72 -7 184 -15 250 -8 65 -15 147 -15 181 0 43 -5 65 -15 74
-20 17 -19 46 1 54 19 7 51 -18 65 -49 10 -23 25 -47 55 -90 11 -16 36 -52 55
-80 33 -47 79 -136 147 -285 43 -92 56 -108 76 -91 21 18 20 57 -4 106 -11 22
-19 49 -20 61 0 11 -4 24 -9 30 -13 13 -31 94 -21 94 5 0 18 -12 30 -27 39
-51 136 -188 172 -243 20 -30 45 -64 55 -75 27 -29 110 -157 173 -269 48 -85
58 -96 80 -94 21 3 25 9 28 41 2 21 -1 44 -6 50 -5 7 -13 28 -17 47 -4 19 -11
40 -15 45 -5 6 -18 37 -29 71 -37 105 -208 419 -323 593 -10 14 -22 35 -28 46
-6 11 -19 34 -30 50 -11 17 -23 36 -26 44 -10 20 -154 233 -170 251 -7 9 -36
60 -64 115 -41 80 -48 101 -36 103 27 6 245 -174 246 -202 1 -6 9 -29 20 -51
11 -22 19 -45 20 -50 1 -27 70 -61 70 -35 0 28 42 1 140 -91 60 -56 140 -123
177 -150 37 -26 75 -55 84 -64 9 -9 29 -17 45 -18 25 -2 29 2 32 28 3 31 -14
68 -89 197 -39 67 -264 304 -372 392 -40 33 -47 44 -47 75 0 20 -7 58 -15 85
-8 27 -15 67 -15 89 0 22 -8 61 -17 88 -16 45 -20 49 -50 49 -38 0 -38 1 -18
-36 8 -16 15 -39 15 -51 0 -12 5 -34 11 -50 6 -15 14 -59 19 -98 5 -38 12 -88
15 -110 l6 -40 -20 40 c-11 22 -20 47 -21 56 0 9 -7 30 -15 45 -8 16 -15 39
-15 51 0 12 -4 24 -9 27 -5 4 -12 23 -16 44 -3 21 -12 56 -20 78 -11 35 -17
39 -49 42 -20 2 -36 1 -36 -3 0 -3 7 -32 17 -65 18 -66 14 -81 -14 -53 -17 16
-96 85 -130 113 -7 6 -36 10 -65 10 l-53 -1 55 -50 c30 -27 60 -53 65 -57 6
-4 31 -25 56 -47 25 -22 69 -60 97 -85 31 -28 57 -61 67 -88 22 -55 16 -69
-16 -40 -51 47 -93 78 -104 78 -6 0 -24 13 -41 28 -58 55 -141 122 -152 122
-6 0 -39 31 -74 70 -62 69 -64 70 -113 70 -27 0 -45 -4 -40 -8 6 -4 28 -29 50
-57 22 -27 51 -61 65 -75 55 -55 190 -252 205 -300 10 -30 86 -153 207 -334
54 -79 98 -149 98 -155 0 -6 4 -11 8 -11 5 0 16 -17 25 -37 9 -21 38 -68 64
-105 26 -36 66 -94 88 -128 36 -56 50 -81 102 -183 8 -16 12 -31 9 -34 -7 -8
1 -18 -87 104 -133 182 -219 306 -324 464 -45 70 -88 129 -93 133 -6 4 -21 27
-33 51 -12 25 -26 45 -30 45 -4 0 -16 18 -28 40 -11 22 -33 59 -48 82 -29 46
-33 53 -80 139 -71 129 -94 167 -113 184 -11 10 -20 24 -20 31 0 7 -3 14 -8
16 -4 2 -25 26 -47 53 -64 81 -70 85 -120 85 l-47 0 29 -29 c57 -58 203 -256
203 -276 0 -2 13 -23 29 -47 16 -24 46 -74 66 -113 21 -38 49 -87 62 -107 12
-21 23 -43 23 -49 0 -21 -27 10 -85 95 -30 44 -73 101 -95 124 -22 24 -40 48
-40 54 0 5 -27 44 -60 85 -33 41 -60 82 -60 92 0 10 -6 23 -13 29 -6 6 -27 40
-46 76 l-34 66 -169 0 -170 0 7 -47 c12 -89 16 -467 5 -568 -6 -55 -13 -174
-15 -265 -5 -153 -12 -229 -35 -370 -6 -35 -7 51 -3 240 9 412 12 950 6 983
l-5 27 -104 0 -104 0 0 -33z m594 -192 c32 -15 66 -72 66 -108 0 -21 -18 -22
-39 -3 -9 8 -40 17 -69 20 -29 2 -60 10 -68 17 -14 12 -20 70 -7 82 12 13 85
7 117 -8z m-447 -267 c-5 -253 -18 -435 -36 -473 -10 -21 -26 -110 -42 -240
-6 -44 -14 -96 -19 -115 -5 -19 -13 -55 -18 -80 -7 -32 -10 48 -11 278 -1 266
2 329 14 359 8 19 15 48 15 63 0 37 38 257 50 294 6 16 10 48 10 72 0 49 14
94 30 94 7 0 9 -79 7 -252z m470 73 c30 -21 29 -59 -2 -102 -25 -33 -64 -68
-76 -69 -20 -1 -49 151 -35 185 5 14 14 15 48 10 24 -4 53 -15 65 -24z m949
-109 c180 -178 292 -311 278 -333 -9 -16 -37 7 -196 163 -145 142 -156 156
-161 196 -3 23 -2 42 2 42 5 0 39 -31 77 -68z m-766 45 c8 -7 23 -22 33 -34
18 -20 18 -22 -2 -66 -12 -25 -21 -52 -21 -59 0 -7 -7 -22 -15 -33 -15 -19
-16 -19 -32 5 -10 14 -32 40 -51 58 -32 32 -32 35 -18 58 9 13 16 32 16 43 0
36 59 54 90 28z m-140 -184 c23 -20 30 -35 30 -65 0 -30 -4 -38 -18 -38 -10 0
-32 -14 -51 -30 -18 -17 -36 -28 -41 -25 -18 11 -50 88 -50 120 0 30 3 35 24
35 13 0 29 7 36 15 18 22 36 19 70 -12z m142 -125 c28 -24 48 -62 48 -94 0
-28 -4 -33 -30 -39 -16 -4 -32 -10 -35 -14 -7 -12 -124 22 -130 37 -8 22 13
50 45 57 16 4 39 20 51 36 23 33 29 34 51 17z m140 -204 c29 -199 36 -344 18
-344 -5 0 -10 15 -10 34 0 18 -7 50 -15 69 -8 20 -15 49 -15 64 0 15 -11 59
-25 97 -19 54 -22 73 -13 90 31 61 50 58 60 -10z"/>
<path d="M2210 7490 c0 -17 40 -90 49 -90 14 0 29 23 33 50 3 22 7 25 43 23
45 -3 141 -30 164 -47 8 -6 36 -33 63 -61 56 -59 52 -54 104 -100 23 -19 46
-35 51 -35 19 0 63 -57 63 -82 0 -14 7 -31 16 -39 25 -20 49 1 49 44 0 19 3
38 6 42 4 3 40 9 80 13 l74 6 -79 8 c-44 4 -84 12 -89 17 -6 6 -14 59 -18 118
-9 128 -13 143 -45 143 -21 0 -24 -5 -24 -37 0 -28 -3 -34 -10 -23 -5 8 -10
25 -10 38 0 19 -5 22 -36 22 -31 0 -35 -3 -29 -17 26 -63 48 -124 60 -165 21
-76 -3 -70 -103 30 -84 83 -107 99 -194 136 -42 19 -218 23 -218 6z"/>
<path d="M4650 5740 c-14 -5 -52 -17 -85 -26 -80 -21 -130 -43 -190 -81 -166
-105 -229 -167 -324 -318 -77 -124 -76 -123 -108 -185 -15 -30 -45 -84 -66
-119 -21 -35 -43 -74 -48 -85 -10 -24 -57 -105 -114 -198 -22 -36 -68 -97
-103 -136 -35 -39 -73 -85 -85 -104 -21 -31 -26 -33 -71 -29 -33 2 -46 0 -42
-8 4 -6 18 -11 32 -11 41 0 30 -29 -45 -112 -40 -44 -93 -117 -180 -248 -28
-41 -57 -84 -66 -95 -8 -10 -15 -24 -15 -30 0 -5 -11 -22 -23 -35 -26 -28 -89
-115 -101 -140 -10 -22 -26 -48 -74 -118 -23 -35 -42 -66 -42 -69 0 -3 -14
-26 -31 -52 -18 -25 -59 -91 -92 -146 -33 -55 -70 -113 -82 -130 -12 -16 -32
-50 -44 -75 -33 -65 -112 -181 -143 -210 -23 -23 -118 -154 -118 -165 0 -13
-73 -125 -82 -125 -5 0 -24 11 -40 26 -17 14 -54 37 -82 51 -28 14 -76 45
-106 68 -74 56 -114 71 -146 56 -34 -15 -88 -14 -131 4 -19 8 -51 15 -70 15
-43 0 -128 -27 -169 -54 -48 -31 -92 -56 -159 -89 l-60 -30 -60 22 c-97 36
-126 41 -193 34 -55 -5 -72 -12 -125 -51 -34 -25 -76 -60 -93 -78 -45 -46 -72
-61 -129 -74 -27 -6 -61 -21 -74 -33 -27 -26 -100 -120 -134 -174 -28 -44
-147 -165 -215 -220 -60 -48 -78 -67 -138 -143 -44 -56 -49 -68 -48 -112 0
-42 5 -53 39 -88 21 -21 48 -40 59 -42 16 -2 21 -10 20 -33 -1 -16 -5 -40 -9
-52 -6 -18 0 -30 28 -58 l35 -35 172 0 c165 0 175 1 232 27 54 24 63 25 109
15 67 -16 98 -15 133 3 15 8 34 15 41 15 6 0 31 13 53 30 54 39 106 52 225 57
95 4 99 4 131 -24 127 -107 180 -133 270 -133 43 0 81 -6 96 -15 38 -22 128
-65 135 -65 4 0 20 -11 37 -25 64 -54 169 -23 308 90 90 74 188 177 204 217
22 51 49 71 85 63 26 -6 36 0 80 43 38 36 51 56 51 78 0 16 7 38 15 48 8 11
15 28 15 38 0 10 5 18 10 18 13 0 13 -56 -1 -100 -5 -19 -14 -120 -19 -225 -5
-104 -14 -221 -19 -260 -6 -38 -11 -106 -11 -150 0 -44 -6 -113 -14 -155 -8
-41 -22 -136 -32 -210 -9 -74 -23 -160 -30 -190 -8 -32 -14 -107 -14 -186 0
-73 -5 -145 -11 -161 -6 -15 -15 -91 -20 -168 -5 -77 -12 -170 -15 -207 l-6
-68 31 0 31 0 0 78 c0 42 5 104 10 137 10 61 23 204 40 425 18 234 48 495 59
523 6 16 11 52 11 80 0 29 7 87 15 130 8 43 15 127 15 185 1 119 31 422 55
552 9 47 20 112 25 145 19 131 28 164 53 210 15 26 27 54 27 61 0 8 6 14 13
14 8 0 24 11 37 25 21 23 96 65 114 65 5 0 17 12 29 26 17 22 26 25 55 20 27
-4 32 -2 24 6 -18 18 -15 23 31 54 23 16 52 40 64 54 20 22 25 23 44 12 19
-12 20 -11 15 5 -6 19 58 89 129 142 17 13 54 46 84 74 78 75 111 97 143 97
37 0 61 14 133 79 70 64 121 128 130 164 4 15 17 37 28 50 12 13 31 41 42 62
11 21 25 44 30 50 6 6 27 47 49 90 21 44 42 88 47 97 5 10 9 28 9 40 0 13 8
43 16 68 21 57 27 480 7 487 -6 2 -14 21 -18 41 -7 39 -19 52 -49 52 -21 0
-21 0 18 -104 24 -64 26 -80 26 -241 0 -177 -13 -258 -45 -285 -8 -7 -15 -27
-15 -44 0 -41 -40 -100 -79 -116 -32 -13 -39 -28 -20 -47 18 -18 3 -56 -42
-106 -42 -49 -63 -58 -73 -32 -9 25 -22 17 -34 -22 -11 -34 -10 -40 8 -55 11
-9 20 -20 20 -25 0 -15 -100 -122 -120 -128 -11 -3 -29 0 -40 8 -16 11 -31 12
-60 6 -23 -5 -49 -5 -64 1 -31 11 -49 -7 -44 -47 2 -22 9 -29 33 -34 17 -4 22
-7 12 -8 -10 0 -26 -8 -34 -17 -15 -14 -17 -14 -25 0 -13 23 -30 20 -64 -12
-46 -43 -111 -92 -123 -92 -15 0 -1 28 51 98 22 29 37 60 34 68 -10 26 -43 14
-82 -29 -40 -43 -116 -107 -129 -107 -4 0 -24 -13 -44 -28 -20 -16 -43 -32
-51 -35 -8 -4 -28 -16 -45 -27 -16 -11 -40 -25 -52 -31 -13 -7 -23 -16 -23
-21 0 -4 -5 -8 -10 -8 -10 0 -68 -37 -80 -51 -18 -20 -165 -105 -275 -158
-209 -101 -257 -121 -286 -121 -53 0 13 65 75 74 45 7 83 20 153 52 17 8 34
14 38 14 3 0 45 25 93 57 198 128 223 144 245 153 12 6 31 15 42 22 11 7 43
26 70 42 128 76 265 201 265 241 0 39 -26 31 -91 -29 -75 -70 -186 -153 -229
-173 -8 -4 -37 -19 -63 -35 -26 -15 -58 -28 -70 -28 -21 1 -22 1 -2 12 11 6
22 14 25 18 3 3 23 17 45 30 68 41 178 125 233 179 57 55 64 84 23 89 -22 4
-20 7 30 58 37 38 61 54 79 54 15 0 35 7 46 15 10 8 27 15 37 15 9 0 26 9 36
19 26 26 55 41 80 41 33 0 151 66 151 85 0 4 17 23 38 41 86 79 113 108 118
130 4 13 10 24 15 24 5 0 9 12 8 28 l0 27 -12 -25 c-7 -14 -19 -32 -27 -41 -8
-8 -24 -26 -36 -40 -25 -30 -85 -79 -96 -79 -4 0 -8 -9 -8 -19 0 -22 -43 -56
-83 -66 -15 -4 -30 -11 -33 -16 -3 -5 -22 -9 -42 -9 -46 0 -59 -8 -63 -40 -3
-19 -11 -26 -34 -28 -16 -2 -34 -8 -40 -13 -5 -5 -24 -9 -41 -9 -50 0 -77 -14
-147 -77 -35 -33 -104 -85 -153 -118 -49 -33 -119 -81 -156 -108 -38 -27 -88
-59 -113 -73 -25 -13 -66 -35 -91 -49 -26 -14 -53 -25 -60 -25 -15 0 -19 26
-5 34 8 5 114 155 136 194 6 9 23 36 38 59 15 24 27 45 27 49 0 10 113 193
215 349 19 28 48 77 66 109 17 32 41 70 53 83 11 13 41 57 66 97 73 120 197
293 325 456 19 25 45 59 58 75 12 17 45 55 73 85 45 48 107 134 139 195 61
111 102 186 119 215 12 19 46 84 76 143 65 128 59 118 134 230 58 86 135 163
226 224 127 86 316 153 429 153 73 0 217 -28 261 -50 56 -29 123 -101 161
-173 38 -75 35 -97 -14 -97 -29 0 -42 -8 -81 -54 -25 -30 -66 -64 -91 -76 -24
-12 -55 -34 -68 -50 -41 -49 -77 -60 -189 -62 -93 -1 -104 -3 -123 -24 -40
-43 -50 -96 -38 -194 19 -145 51 -186 168 -214 44 -10 93 -16 114 -13 26 4 42
1 58 -12 19 -16 22 -28 22 -121 1 -79 4 -107 17 -121 11 -12 15 -35 14 -81 -3
-88 9 -199 21 -215 6 -7 9 -27 7 -44 -3 -18 -1 -52 4 -77 11 -60 -8 -218 -32
-257 -9 -16 -15 -36 -13 -43 5 -14 -13 -68 -32 -92 -6 -8 -12 -25 -13 -38 -1
-33 -38 -105 -67 -132 -14 -13 -25 -35 -25 -49 -1 -30 -30 -67 -77 -100 -18
-12 -33 -30 -33 -40 0 -19 -69 -91 -88 -91 -7 0 -17 -11 -22 -25 -12 -31 -116
-114 -153 -122 -16 -3 -32 -15 -37 -27 -14 -35 -86 -84 -102 -68 -10 10 -58 4
-58 -8 0 -4 7 -10 15 -14 28 -10 16 -25 -56 -67 -39 -23 -83 -57 -97 -76 -15
-18 -33 -33 -39 -33 -7 0 -20 -12 -29 -27 -23 -37 -84 -95 -84 -80 2 52 59
173 94 202 78 63 108 97 99 106 -8 8 -31 -5 -82 -45 -39 -32 -79 -68 -87 -82
-38 -57 -66 -159 -72 -254 -4 -86 -7 -98 -33 -128 -16 -18 -29 -41 -29 -52 0
-24 -31 -78 -49 -85 -8 -3 -22 2 -32 11 -17 15 -25 16 -60 5 -38 -12 -42 -11
-64 13 -13 14 -33 26 -43 26 -23 0 -37 16 -46 52 -5 21 -14 29 -41 34 -19 3
-41 16 -49 28 -8 11 -37 45 -65 75 -38 41 -51 62 -51 85 0 17 -4 37 -9 45 -7
11 -14 7 -30 -20 -12 -19 -21 -38 -21 -44 0 -5 -6 -22 -14 -36 -7 -14 -16 -42
-20 -62 -4 -21 -11 -37 -16 -37 -6 0 -10 -6 -10 -12 -1 -7 -9 -31 -20 -53 -24
-49 -25 -73 -4 -97 14 -15 15 -20 4 -34 -8 -9 -15 -51 -18 -102 -2 -48 -10
-106 -18 -130 -15 -47 -8 -74 25 -91 16 -9 19 -24 20 -104 1 -80 5 -101 26
-139 21 -39 23 -49 14 -84 -13 -48 -37 -119 -55 -161 -8 -17 -14 -36 -14 -42
0 -6 -5 -19 -10 -29 -25 -42 -80 -237 -80 -282 0 -27 -4 -51 -9 -55 -5 -3 -12
-20 -16 -38 -6 -31 -22 -105 -45 -214 -6 -28 -15 -85 -20 -125 -9 -74 -22
-147 -41 -228 -6 -25 -13 -123 -16 -218 -6 -164 -7 -176 -29 -202 -33 -39 -30
-50 15 -50 35 0 39 3 45 31 3 17 6 73 6 123 0 50 7 129 15 176 8 47 15 108 15
136 0 28 7 73 15 100 8 27 15 62 15 78 0 15 6 54 14 85 7 31 21 94 31 141 9
47 23 105 31 130 12 42 25 106 43 220 4 25 13 61 19 80 7 19 23 69 37 110 14
41 35 104 47 140 11 36 26 79 33 95 7 17 20 66 29 110 10 44 29 100 42 125 14
25 34 65 46 90 84 177 100 207 146 273 33 47 65 60 88 37 6 -6 20 -4 38 6 28
14 31 13 56 -11 33 -31 41 -31 79 1 30 25 47 29 109 26 36 -2 41 -19 17 -55
-8 -12 -21 -56 -30 -97 -9 -41 -20 -79 -25 -84 -6 -6 -10 -47 -10 -92 0 -79
-2 -87 -45 -167 -31 -58 -45 -97 -45 -124 0 -23 -11 -59 -30 -93 -21 -39 -29
-70 -30 -105 0 -27 -7 -59 -15 -69 -8 -11 -15 -32 -15 -47 0 -15 -5 -31 -11
-35 -6 -3 -18 -21 -26 -38 -8 -17 -25 -51 -38 -76 -13 -25 -24 -54 -24 -65 -1
-11 -8 -31 -17 -43 -32 -45 -62 -143 -69 -219 -4 -43 -11 -85 -15 -93 -10 -18
-29 -134 -40 -243 -4 -43 -13 -90 -18 -105 -11 -29 -42 -135 -66 -222 -8 -30
-17 -83 -20 -118 -3 -34 -9 -74 -12 -87 -5 -22 -3 -25 19 -25 30 0 37 20 37
113 0 38 5 78 12 90 6 12 15 38 19 57 4 19 12 49 17 65 33 98 42 137 42 176 0
24 7 71 15 104 8 33 14 76 15 96 0 20 7 56 15 79 8 23 15 67 15 97 0 29 7 70
15 90 8 19 15 43 15 53 0 9 13 35 29 57 32 45 62 106 81 168 27 91 30 103 30
127 0 15 7 34 15 42 9 9 23 42 31 73 8 32 22 72 31 88 8 17 22 57 29 90 14 56
37 116 70 176 7 15 17 60 20 100 4 41 17 104 30 140 13 37 24 79 24 94 0 24
34 95 46 95 10 0 85 -51 118 -80 28 -25 39 -29 54 -21 25 13 35 75 21 125 -7
27 -7 42 0 49 17 17 26 -2 25 -53 -2 -54 16 -73 38 -41 7 10 22 20 33 22 34 7
55 90 42 169 -5 36 -10 92 -11 125 l-1 59 35 9 c19 4 65 18 101 29 52 16 70
18 87 9 44 -23 67 -13 134 59 36 38 78 72 92 76 33 8 90 -20 113 -56 9 -13 25
-34 36 -45 10 -11 37 -48 60 -82 23 -35 45 -63 49 -63 4 0 8 13 8 29 0 20 9
36 28 51 l27 21 -36 -4 c-28 -4 -42 0 -58 14 -12 11 -21 23 -21 28 0 17 -99
111 -131 125 -55 23 -120 5 -177 -51 -69 -66 -87 -77 -111 -64 -23 13 -93 15
-106 3 -6 -5 -49 -21 -97 -36 -65 -21 -91 -25 -105 -17 -11 5 -44 13 -74 17
-73 9 -99 20 -99 42 0 21 59 80 115 112 36 22 144 96 170 117 6 5 48 38 95 73
180 136 390 382 444 520 10 25 24 58 32 73 8 16 14 37 14 47 0 10 4 21 9 24
19 12 50 146 56 246 7 103 -7 273 -24 295 -5 5 -11 62 -15 125 -4 63 -11 119
-16 124 -6 6 -10 38 -10 73 0 34 -5 96 -11 138 -12 77 -3 137 25 174 16 21 57
33 108 32 41 -1 50 3 80 37 34 39 53 77 83 175 18 55 18 62 2 146 -9 48 -17
119 -17 158 0 102 -37 176 -129 258 -56 50 -73 59 -126 68 -69 13 -314 17
-345 7z m581 -517 c22 -68 -29 -242 -74 -251 -11 -2 -18 7 -22 32 -4 19 -14
41 -22 48 -28 23 -74 128 -71 161 l3 32 62 -3 c34 -2 70 1 80 7 27 16 30 14
44 -26z m-228 -35 c2 -7 -2 -28 -9 -47 -17 -41 -18 -143 -2 -188 11 -30 10
-35 -14 -60 -14 -16 -32 -46 -39 -68 -7 -22 -17 -45 -21 -51 -14 -19 -55 -22
-137 -10 -90 13 -112 27 -142 95 -26 58 -23 190 4 232 16 24 24 27 80 27 34 0
90 3 125 7 54 6 65 11 89 40 29 35 58 44 66 23z m-1914 -1994 c-37 -38 -172
-133 -229 -160 -15 -8 -71 -45 -80 -54 -3 -3 -23 -13 -45 -24 -22 -10 -47 -22
-55 -27 -136 -76 -190 -95 -190 -65 0 19 16 29 75 50 52 18 156 69 216 105 19
12 41 24 49 28 8 3 41 26 72 50 31 24 60 43 63 43 4 0 24 14 45 30 21 17 42
30 48 30 5 0 15 7 22 15 7 8 20 15 28 15 11 0 5 -11 -19 -36z m-1319 -339 c17
-10 57 -14 126 -15 106 0 112 -2 176 -60 9 -8 38 -26 65 -40 26 -14 69 -40 95
-58 42 -30 47 -37 41 -60 -3 -15 -19 -45 -35 -67 -16 -22 -51 -71 -79 -110
-35 -49 -55 -69 -68 -67 -14 2 -20 -5 -24 -31 -3 -20 -30 -68 -65 -115 -33
-44 -62 -92 -66 -106 -7 -30 8 -66 28 -66 15 0 177 69 191 81 5 5 18 9 30 9
11 0 25 8 31 18 6 9 45 40 86 68 62 43 84 53 136 59 33 4 66 13 73 21 6 8 19
14 28 14 9 1 34 14 56 30 89 66 174 120 190 120 12 0 15 -5 10 -21 -4 -12 -11
-44 -15 -73 -24 -158 -34 -212 -40 -219 -4 -4 -24 28 -46 73 -21 44 -42 80
-46 80 -13 0 -9 -36 7 -66 8 -16 15 -37 15 -46 0 -9 5 -20 10 -23 12 -8 13
-62 1 -69 -5 -3 -19 -38 -31 -78 -30 -94 -71 -138 -130 -138 -45 0 -73 -22
-95 -73 -29 -68 -214 -236 -322 -292 -80 -41 -100 -41 -147 0 -16 14 -34 25
-41 25 -17 0 -75 29 -110 55 -26 19 -47 24 -125 26 l-95 4 -84 65 c-123 96
-110 91 -251 87 -129 -4 -146 -9 -250 -65 -97 -53 -109 -56 -144 -44 -54 20
-119 15 -167 -13 -42 -24 -52 -25 -205 -25 -111 0 -164 4 -172 12 -15 15 -15
43 0 86 12 32 11 35 -15 58 -16 13 -35 24 -45 24 -25 0 -72 51 -72 78 0 27 77
132 130 177 83 70 223 212 236 240 8 17 29 46 47 66 17 20 54 62 80 93 39 46
54 56 80 56 45 1 83 24 172 104 42 38 88 76 103 84 43 22 137 27 175 10 73
-35 109 -48 136 -48 30 0 96 32 213 103 42 26 87 47 100 47 13 0 32 7 42 15
24 19 44 18 76 0z m910 -263 c0 -8 -26 -23 -72 -42 -16 -7 -28 -16 -28 -21 0
-5 -6 -9 -14 -9 -7 0 -19 -7 -26 -15 -7 -8 -21 -15 -32 -15 -10 0 -21 -7 -24
-15 -4 -8 -10 -15 -15 -15 -11 0 -68 -40 -172 -121 -89 -69 -223 -152 -237
-147 -6 2 37 63 95 136 102 128 107 132 144 132 65 0 137 18 208 52 37 18 70
36 73 39 3 3 16 10 30 14 13 4 30 14 38 21 15 15 32 18 32 6z m730 -97 c45
-54 69 -75 86 -75 19 0 28 -11 46 -52 13 -29 21 -59 20 -67 -2 -8 -21 -40 -43
-72 -21 -32 -47 -80 -58 -107 -11 -27 -38 -80 -61 -117 -45 -74 -80 -155 -80
-186 0 -13 -6 -19 -16 -17 -16 3 -25 66 -24 176 1 46 -2 54 -19 59 -30 8 -28
61 4 107 25 38 33 76 15 76 -5 0 -10 -9 -10 -20 0 -11 -5 -20 -11 -20 -7 0 -9
11 -5 33 18 90 23 134 15 154 -10 26 33 182 54 195 20 13 21 11 87 -67z"/>
<path d="M4704 5437 c-42 -36 -38 -82 11 -124 32 -27 47 -33 85 -33 99 0 134
100 56 162 -33 27 -118 24 -152 -5z"/>
<path d="M2062 4994 c-23 -8 -61 -27 -85 -42 -23 -15 -64 -35 -90 -45 -44 -15
-52 -15 -78 -1 -60 30 -141 8 -216 -59 -17 -16 -35 -19 -86 -18 -61 1 -65 0
-100 -36 -20 -20 -37 -40 -37 -44 0 -5 -10 -15 -23 -23 -19 -13 -49 -14 -205
-6 -184 10 -243 4 -185 -18 45 -17 89 -22 221 -23 135 -2 154 -10 125 -50 -43
-58 -83 -160 -83 -211 0 -16 -7 -42 -14 -57 -8 -15 -13 -37 -10 -47 8 -29 63
-62 124 -75 30 -6 72 -15 93 -19 21 -4 49 -18 63 -31 24 -22 74 -45 124 -56
14 -3 34 -12 45 -19 11 -8 31 -14 45 -14 28 0 105 23 155 45 45 21 241 26 287
8 75 -30 255 7 358 72 21 13 54 27 74 30 20 4 39 11 42 16 3 5 15 9 28 9 36 0
63 38 70 100 3 30 9 72 12 92 6 34 2 42 -31 75 -36 36 -61 81 -51 91 3 2 18 0
33 -6 15 -6 57 -13 92 -16 35 -3 69 -10 75 -15 6 -4 30 -11 54 -15 24 -3 51
-11 60 -16 9 -5 43 -12 74 -15 32 -4 60 -11 63 -16 4 -5 19 -9 35 -9 16 0 48
-7 70 -16 23 -9 61 -17 85 -18 26 0 47 -6 50 -13 2 -7 21 -13 40 -13 22 0 34
4 30 10 -3 6 -16 10 -29 10 -12 0 -31 7 -42 15 -10 8 -38 15 -60 15 -23 0 -47
6 -53 14 -7 8 -34 17 -61 21 -28 4 -52 10 -55 15 -3 4 -35 11 -72 15 -38 4
-72 11 -78 15 -5 4 -29 11 -52 15 -24 4 -45 11 -48 15 -3 5 -31 11 -63 15 -31
3 -73 10 -92 15 -19 5 -47 11 -61 14 -52 11 -109 84 -109 140 0 29 -8 41 -47
74 -61 50 -84 62 -123 62 -31 0 -103 31 -115 50 -9 15 -124 11 -173 -6z m153
-34 c12 -20 85 -50 121 -50 28 0 50 -10 91 -41 48 -37 53 -45 53 -80 0 -28 8
-47 28 -71 16 -18 46 -60 67 -93 21 -33 53 -77 72 -98 23 -26 32 -44 28 -55
-4 -10 -9 -42 -12 -72 -7 -65 -14 -77 -56 -85 -39 -8 -89 -30 -139 -62 -21
-12 -43 -23 -50 -23 -7 0 -26 -7 -41 -15 -47 -24 -195 -31 -255 -11 -28 10
-57 14 -63 10 -7 -4 -58 -8 -114 -9 -59 -1 -111 -7 -125 -15 -13 -7 -48 -18
-78 -25 -50 -12 -58 -11 -115 11 -33 13 -67 24 -75 24 -7 0 -30 12 -49 27 -38
29 -98 50 -173 60 -71 9 -77 20 -72 116 3 45 8 84 12 87 12 9 80 110 80 119 0
11 51 100 83 145 17 25 24 27 57 22 45 -7 98 10 137 44 16 14 39 31 51 38 29
16 97 18 116 3 17 -14 112 -6 122 10 3 5 13 9 23 9 10 0 37 13 59 30 23 16 56
36 74 44 38 17 134 21 143 6z"/>
<path d="M741 4121 c-62 -65 -121 -145 -121 -164 0 -9 -4 -18 -9 -21 -5 -3
-18 -24 -30 -46 -37 -71 -25 -179 25 -221 38 -32 232 -40 344 -14 41 9 98 19
125 22 50 5 95 33 95 59 0 6 34 37 75 68 74 56 75 57 75 101 0 41 -7 55 -69
138 -93 123 -102 127 -308 125 l-158 -1 -44 -46z m124 -1 c4 -7 40 -8 100 -4
127 9 174 -4 212 -60 15 -22 45 -62 65 -87 21 -25 38 -53 38 -62 0 -9 -27 -36
-60 -60 -33 -25 -73 -62 -89 -84 -29 -40 -29 -40 -115 -47 -47 -4 -102 -13
-120 -21 -38 -16 -83 -18 -191 -9 l-70 5 -18 42 c-36 89 -15 142 119 297 82
93 113 115 129 90z"/>
<path d="M2100 3691 c-63 -24 -164 -73 -171 -83 -26 -40 -85 -98 -99 -98 -17
0 -60 -43 -60 -60 0 -15 17 -12 23 4 3 7 21 16 41 20 24 5 37 14 42 29 3 12
16 31 28 42 18 18 32 20 119 17 55 -1 116 2 138 8 53 15 73 2 94 -62 l17 -52
-27 -23 c-14 -13 -38 -23 -53 -23 -15 0 -59 -13 -97 -30 -47 -19 -87 -30 -121
-30 -33 0 -56 -5 -64 -15 -9 -11 -34 -15 -92 -15 -71 0 -80 2 -85 20 -7 27
-17 25 -33 -5 -23 -43 -5 -49 102 -37 210 25 246 31 264 40 22 13 114 38 164
47 22 3 64 28 113 66 76 60 77 61 77 107 0 41 -4 50 -36 78 -24 22 -50 34 -82
39 -26 4 -62 13 -81 21 -41 17 -63 16 -121 -5z m293 -92 c24 -33 16 -89 -14
-96 -10 -3 -19 -9 -19 -14 0 -21 -32 -20 -56 1 -19 18 -24 34 -24 70 0 25 6
52 12 58 21 21 79 10 101 -19z"/>
<path d="M5250 2173 c0 -10 6 -27 14 -38 7 -11 16 -41 20 -67 4 -26 11 -50 17
-53 5 -4 9 -23 9 -43 0 -20 7 -50 15 -66 8 -15 15 -45 15 -65 1 -20 7 -54 15
-76 8 -22 15 -54 15 -70 0 -35 33 -101 65 -130 12 -11 43 -37 69 -58 25 -21
46 -44 46 -51 0 -8 13 -40 29 -72 54 -112 91 -357 91 -606 0 -80 5 -170 11
-199 19 -96 29 -190 38 -365 10 -200 13 -214 47 -214 27 0 29 7 13 47 -7 15
-15 111 -20 213 -4 102 -15 232 -24 290 -8 58 -15 152 -15 210 0 162 -36 461
-67 550 -29 85 -98 212 -122 229 -60 40 -109 97 -120 141 -7 25 -18 66 -26 91
-8 26 -15 62 -15 80 0 19 -7 47 -15 63 -8 15 -15 42 -15 60 -1 17 -7 42 -15
56 -8 14 -14 39 -15 56 0 17 -6 37 -14 44 -8 6 -16 21 -18 32 -4 27 -28 36
-28 11z"/>
<path d="M7937 2040 c-14 -11 -30 -20 -37 -20 -6 0 -3 -12 9 -29 12 -16 21
-40 21 -53 0 -13 4 -28 10 -34 5 -5 11 -30 12 -54 3 -33 11 -52 31 -72 30 -30
27 -43 -17 -95 -27 -32 -40 -29 -32 8 3 19 0 42 -10 60 -12 24 -13 34 -3 45 9
12 6 16 -20 25 -23 8 -31 17 -31 34 0 13 5 25 12 27 19 7 0 38 -23 38 -12 0
-38 -12 -56 -26 -31 -24 -33 -28 -20 -42 12 -12 13 -19 4 -34 -10 -16 -9 -22
7 -33 13 -10 17 -22 13 -42 -4 -20 1 -34 16 -49 12 -12 28 -29 35 -38 7 -9 24
-16 37 -16 20 0 25 -6 31 -35 7 -37 21 -46 30 -20 9 21 24 19 24 -4 0 -11 9
-23 20 -26 11 -3 20 -11 20 -16 0 -12 62 -39 90 -39 17 0 20 6 20 48 -1 49
-25 92 -53 92 -13 0 -67 56 -67 71 0 4 11 14 24 22 23 15 25 15 38 -5 9 -14
20 -19 31 -15 22 8 33 55 19 78 -8 13 -9 26 -1 45 5 15 8 33 5 41 -8 20 -58
-5 -52 -26 7 -22 -30 -65 -49 -57 -12 4 -13 10 -6 23 5 10 7 31 4 46 -3 16 -1
27 6 27 17 0 13 37 -8 78 -11 20 -24 49 -30 65 -13 32 -20 33 -54 7z"/>
<path d="M4717 1283 c-13 -12 -7 -89 8 -109 8 -10 15 -32 15 -47 0 -15 7 -44
15 -64 19 -46 19 -90 -1 -144 -14 -35 -17 -84 -18 -234 l-1 -190 34 -95 c18
-52 38 -100 43 -107 11 -14 26 -110 35 -220 5 -68 7 -73 29 -73 24 0 24 0 18
93 -7 114 -18 176 -44 231 -10 23 -33 84 -50 135 -28 84 -30 102 -30 230 0 93
5 154 15 187 19 63 19 151 0 188 -8 15 -15 41 -15 56 0 16 -7 35 -15 44 -9 8
-15 33 -15 58 0 44 -11 73 -23 61z"/>
<path d="M7900 856 c0 -14 -4 -28 -10 -31 -15 -9 -90 -173 -90 -196 0 -7 -6
-31 -14 -54 -7 -22 -21 -65 -31 -95 -9 -30 -21 -64 -26 -75 -11 -26 -43 -125
-63 -200 -9 -33 -21 -73 -26 -90 -5 -16 -12 -49 -16 -72 -6 -39 -5 -43 15 -43
15 0 21 6 21 23 0 12 5 29 10 37 7 11 10 5 10 -22 0 -31 4 -38 20 -38 15 0 20
7 20 28 0 16 3 32 7 36 9 8 29 94 43 180 6 33 14 64 19 70 5 6 12 31 16 56 4
24 11 51 15 60 12 23 40 151 40 183 0 16 5 38 12 50 6 12 18 51 26 87 23 108
25 130 13 130 -6 0 -11 -11 -11 -24z"/>
<path d="M8075 800 c-11 -19 -29 -53 -39 -75 -10 -22 -25 -53 -32 -68 -8 -16
-14 -37 -14 -47 0 -9 -7 -23 -15 -30 -8 -7 -15 -23 -15 -36 0 -12 -5 -26 -11
-29 -5 -4 -14 -17 -20 -28 -5 -12 -13 -29 -19 -37 -14 -23 -80 -198 -80 -214
0 -8 -4 -17 -9 -21 -5 -3 -12 -19 -16 -36 -4 -17 -13 -42 -21 -57 -8 -15 -14
-36 -14 -47 0 -11 -7 -29 -15 -39 -22 -29 -18 -38 12 -34 23 2 29 10 40 47 7
25 17 49 23 55 5 5 10 27 10 48 0 21 5 38 10 38 12 0 13 -92 1 -106 -5 -5 -12
-26 -15 -46 -6 -33 -4 -38 12 -38 15 0 21 9 25 32 20 116 47 222 68 260 5 10
9 38 9 62 0 30 5 46 15 50 9 3 15 18 15 39 0 19 7 40 15 47 8 7 15 23 15 35 0
12 7 28 15 35 8 7 15 27 15 44 0 17 6 40 13 51 21 32 49 129 45 156 -3 23 -4
23 -23 -11z"/>
<path d="M7630 707 c0 -31 -6 -61 -15 -73 -8 -10 -15 -37 -15 -59 0 -22 -7
-65 -15 -95 -9 -30 -18 -113 -22 -185 -3 -72 -10 -135 -15 -142 -5 -6 -12 -44
-15 -83 -6 -67 -5 -72 13 -68 23 4 30 44 44 248 5 80 14 163 19 185 6 22 12
70 15 107 3 38 10 77 16 87 13 25 13 131 0 131 -5 0 -10 -24 -10 -53z"/>
<path d="M7420 350 l0 -350 44 0 44 0 -4 78 c-3 42 -9 107 -15 144 -5 37 -9
106 -9 155 -1 176 -24 323 -52 323 -4 0 -8 -157 -8 -350z"/>
<path d="M1170 490 c-16 -16 -19 -30 -16 -75 4 -53 -9 -79 -16 -32 -5 33 -60
37 -82 5 -24 -33 -20 -56 17 -96 47 -51 101 -102 110 -102 17 0 5 -42 -33
-114 l-41 -77 32 3 c24 2 36 11 50 38 10 18 31 53 45 76 24 38 31 42 55 37 31
-6 120 12 162 34 24 12 28 19 22 41 -3 14 -14 31 -23 38 -15 11 -14 16 17 54
28 36 32 47 25 68 -5 13 -19 31 -31 39 -20 14 -25 11 -77 -44 -56 -59 -84 -65
-53 -12 26 46 22 95 -8 115 -23 15 -27 15 -43 1 -16 -15 -19 -15 -30 3 -16 26
-56 26 -82 0z"/>
</g>
</svg>
